<?xml version="1.0" standalone="yes"?>

<svg version="1.1" viewBox="0.0 0.0 333.62992125984255 297.2257217847769" fill="none" stroke="none" stroke-linecap="square" stroke-miterlimit="10" xmlns="http://www.w3.org/2000/svg" xmlns:xlink="http://www.w3.org/1999/xlink"><clipPath id="p.0"><path d="m0 0l333.6299 0l0 297.2257l-333.6299 0l0 -297.2257z" clip-rule="nonzero"></path></clipPath><g clip-path="url(#p.0)"><path fill="#000000" fill-opacity="0.0" d="m0 0l333.6299 0l0 297.2257l-333.6299 0z" fill-rule="nonzero"></path><path fill="#d9d9d9" d="m28.582678 52.205654l0 0c0 -25.666534 20.806837 -46.47337 46.473366 -46.47337l185.8879 0l0 0c12.325531 0 24.14621 4.896287 32.861664 13.611735c8.715424 8.715446 13.611725 20.53613 13.611725 32.861633l0 189.54144c0 25.666534 -20.806854 46.47336 -46.47339 46.47336l-185.8879 0l0 0c-25.66653 0 -46.473366 -20.806824 -46.473366 -46.47336z" fill-rule="nonzero"></path><path stroke="#000000" stroke-width="1.0" stroke-linejoin="round" stroke-linecap="butt" d="m28.582678 52.205654l0 0c0 -25.666534 20.806837 -46.47337 46.473366 -46.47337l185.8879 0l0 0c12.325531 0 24.14621 4.896287 32.861664 13.611735c8.715424 8.715446 13.611725 20.53613 13.611725 32.861633l0 189.54144c0 25.666534 -20.806854 46.47336 -46.47339 46.47336l-185.8879 0l0 0c-25.66653 0 -46.473366 -20.806824 -46.473366 -46.47336z" fill-rule="nonzero"></path><path fill="#000000" d="m90.451584 32.013866l1.78125 0q0.71875 0 1.484375 0.015625q0.78125 0 1.515625 0.109375q0.734375 0.109375 1.390625 0.359375q0.671875 0.234375 1.15625 0.71875q0.5 0.46875 0.796875 1.21875q0.296875 0.75 0.296875 1.859375q0 1.0 -0.25 1.71875q-0.234375 0.703125 -0.65625 1.1875q-0.40625 0.484375 -0.96875 0.78125q-0.546875 0.28125 -1.1875 0.4375q-0.625 0.140625 -1.296875 0.1875q-0.65625 0.046875 -1.28125 0.046875l0 5.5l-2.78125 0.21875l0 -14.359375zm3.265625 6.390625q0.484375 0 0.90625 -0.078125q0.4375 -0.09375 0.765625 -0.328125q0.328125 -0.234375 0.515625 -0.65625q0.1875 -0.421875 0.1875 -1.0625q0 -0.640625 -0.15625 -1.046875q-0.15625 -0.40625 -0.484375 -0.609375q-0.3125 -0.21875 -0.765625 -0.296875q-0.453125 -0.09375 -1.03125 -0.09375l-0.40625 0l0 4.171875l0.46875 0zm5.8577423 4.828125q0 -0.765625 0.21875 -1.328125q0.21875 -0.578125 0.578125 -0.984375q0.375 -0.421875 0.859375 -0.6875q0.484375 -0.28125 1.0 -0.453125q0.53125 -0.171875 1.0625 -0.265625q0.53125 -0.09375 0.984375 -0.109375q0 -0.375 -0.015625 -0.734375q0 -0.359375 -0.078125 -0.640625q-0.0625 -0.28125 -0.234375 -0.453125q-0.15625 -0.1875 -0.4375 -0.1875q-0.234375 0 -0.40625 0.109375q-0.171875 0.109375 -0.296875 0.28125q-0.109375 0.171875 -0.171875 0.390625q-0.0625 0.21875 -0.09375 0.4375l-2.59375 -0.46875q0.109375 -0.796875 0.453125 -1.3125q0.359375 -0.53125 0.84375 -0.828125q0.5 -0.3125 1.09375 -0.4375q0.59375 -0.125 1.171875 -0.125q0.90625 0 1.546875 0.265625q0.65625 0.25 1.078125 0.703125q0.421875 0.4375 0.609375 1.03125q0.203125 0.59375 0.203125 1.28125l0 5.53125q0 0.3125 0.046875 0.65625q0.046875 0.328125 0.09375 0.609375q0.0625 0.328125 0.15625 0.640625l-2.609375 0.21875l-0.296875 -1.3125q-0.15625 0.296875 -0.40625 0.5625q-0.25 0.25 -0.578125 0.453125q-0.3125 0.203125 -0.671875 0.3125q-0.34375 0.125 -0.6875 0.125q-0.546875 0 -1.0 -0.25q-0.4375 -0.234375 -0.765625 -0.671875q-0.3125 -0.453125 -0.484375 -1.046875q-0.171875 -0.59375 -0.171875 -1.3125zm2.625 -0.046875q0 0.640625 0.25 1.03125q0.25 0.390625 0.796875 0.390625q0.1875 0 0.359375 -0.09375q0.1875 -0.109375 0.34375 -0.21875q0.171875 -0.140625 0.328125 -0.328125l0 -2.96875q-0.4375 0 -0.828125 0.109375q-0.375 0.109375 -0.65625 0.375q-0.28125 0.25 -0.4375 0.671875q-0.15625 0.421875 -0.15625 1.03125zm5.958618 4.125q0.234375 0.015625 0.46875 0.015625q0.171875 0.015625 0.359375 0.015625q0.1875 0 0.265625 0q0.46875 0 0.78125 -0.109375q0.328125 -0.109375 0.53125 -0.3125q0.203125 -0.203125 0.296875 -0.5q0.09375 -0.28125 0.09375 -0.640625l0 -0.515625l-3.0625 -9.5625l2.890625 -0.125l1.515625 6.6875l1.40625 -6.625l2.421875 -0.03125l-2.734375 10.46875q-0.34375 1.15625 -0.84375 1.859375q-0.484375 0.71875 -1.046875 1.09375q-0.546875 0.375 -1.125 0.5q-0.578125 0.125 -1.09375 0.125q-0.203125 0 -0.40625 -0.03125q-0.203125 -0.015625 -0.359375 -0.03125q-0.1875 -0.03125 -0.359375 -0.046875l0 -2.234375zm17.988907 -8.484375q0 -0.546875 -0.15625 -0.828125q-0.15625 -0.28125 -0.390625 -0.28125q-0.28125 0 -0.5 0.125q-0.21875 0.125 -0.390625 0.25q-0.1875 0.171875 -0.34375 0.390625l0 7.671875l-2.671875 0.21875l0 -7.5625q0 -0.59375 -0.140625 -0.84375q-0.140625 -0.25 -0.3125 -0.25q-0.265625 0 -0.5 0.125q-0.234375 0.125 -0.421875 0.25q-0.21875 0.171875 -0.40625 0.390625l0 7.671875l-2.671875 0.21875l0 -10.578125l2.671875 -0.21875l0 1.359375q0.5625 -0.65625 1.265625 -1.078125q0.703125 -0.421875 1.484375 -0.421875q0.546875 0 0.953125 0.390625q0.421875 0.375 0.625 1.265625q0.578125 -0.765625 1.234375 -1.203125q0.65625 -0.453125 1.515625 -0.453125q0.53125 0 0.875 0.21875q0.34375 0.21875 0.546875 0.640625q0.21875 0.40625 0.3125 1.015625q0.09375 0.609375 0.09375 1.375l0 7.46875l-2.671875 0.21875l0 -7.546875zm6.795822 2.46875q0 0.5 0.0625 1.078125q0.0625 0.5625 0.21875 1.046875q0.15625 0.484375 0.40625 0.8125q0.25 0.3125 0.609375 0.3125q0.3125 0 0.578125 -0.25q0.265625 -0.25 0.453125 -0.5625q0.1875 -0.3125 0.296875 -0.59375q0.125 -0.28125 0.15625 -0.328125l2.03125 0.765625q-0.1875 0.640625 -0.5 1.1875q-0.3125 0.53125 -0.75 0.921875q-0.421875 0.390625 -1.0 0.609375q-0.578125 0.21875 -1.3125 0.21875q-0.96875 0 -1.71875 -0.40625q-0.734375 -0.40625 -1.21875 -1.140625q-0.484375 -0.734375 -0.734375 -1.75q-0.234375 -1.03125 -0.234375 -2.234375q0 -1.234375 0.25 -2.25q0.25 -1.015625 0.75 -1.75q0.5 -0.734375 1.25 -1.140625q0.75 -0.40625 1.75 -0.40625q0.953125 0 1.671875 0.40625q0.71875 0.40625 1.1875 1.140625q0.484375 0.734375 0.71875 1.75q0.25 1.015625 0.25 2.25l-0.03125 0.125q-0.015625 0.046875 -0.03125 0.109375q0 0.046875 0 0.078125l-5.109375 0zm2.546875 -1.546875q0 -0.53125 -0.078125 -0.984375q-0.0625 -0.453125 -0.21875 -0.78125q-0.140625 -0.328125 -0.375 -0.515625q-0.234375 -0.1875 -0.578125 -0.1875q-0.234375 0 -0.484375 0.1875q-0.234375 0.1875 -0.421875 0.515625q-0.171875 0.328125 -0.28125 0.78125q-0.109375 0.453125 -0.109375 0.984375l2.546875 0zm9.43129 -0.625q0 -0.78125 -0.28125 -1.09375q-0.265625 -0.3125 -0.703125 -0.3125q-0.34375 0 -0.796875 0.234375q-0.4375 0.21875 -0.890625 0.5l0 7.703125l-2.671875 0.21875l0 -10.578125l2.671875 -0.21875l0 1.359375q0.796875 -0.6875 1.578125 -1.09375q0.796875 -0.40625 1.484375 -0.40625q0.5 0 0.90625 0.1875q0.421875 0.1875 0.71875 0.546875q0.3125 0.34375 0.484375 0.84375q0.171875 0.5 0.171875 1.125l0 8.015625l-2.671875 0.21875l0 -7.25zm5.38501 -3.546875l0.265625 -2.3125l2.328125 -0.34375l0 2.65625l2.1875 0l-0.109375 2.0l-2.078125 0l0 5.890625q0 0.3125 0.125 0.515625q0.140625 0.203125 0.328125 0.3125q0.203125 0.109375 0.4375 0.15625q0.25 0.03125 0.484375 0.03125q0.28125 0 0.46875 -0.03125q0.09375 -0.015625 0.1875 -0.03125l0 1.828125q-0.203125 0.078125 -0.5 0.140625q-0.25 0.046875 -0.640625 0.078125q-0.375 0.046875 -0.890625 0.046875q-0.4375 0 -0.90625 -0.125q-0.46875 -0.125 -0.859375 -0.40625q-0.390625 -0.296875 -0.65625 -0.78125q-0.25 -0.484375 -0.25 -1.203125l0 -6.421875l-1.484375 0l0.109375 -2.0l1.453125 0zm10.707275 -3.34375l2.78125 -0.21875l0 14.140625l-2.78125 0.21875l0 -14.140625zm10.498337 6.890625q0 -0.78125 -0.28125 -1.09375q-0.265625 -0.3125 -0.703125 -0.3125q-0.34375 0 -0.796875 0.234375q-0.4375 0.21875 -0.890625 0.5l0 7.703125l-2.671875 0.21875l0 -10.578125l2.671875 -0.21875l0 1.359375q0.796875 -0.6875 1.578125 -1.09375q0.796875 -0.40625 1.484375 -0.40625q0.5 0 0.90625 0.1875q0.421875 0.1875 0.71875 0.546875q0.3125 0.34375 0.484375 0.84375q0.171875 0.5 0.171875 1.125l0 8.015625l-2.671875 0.21875l0 -7.25zm6.16626 4.015625q0.09375 0.359375 0.296875 0.640625q0.171875 0.234375 0.46875 0.4375q0.3125 0.1875 0.796875 0.1875q0.1875 0 0.421875 -0.03125q0.234375 -0.046875 0.4375 -0.140625q0.203125 -0.109375 0.34375 -0.265625q0.140625 -0.171875 0.140625 -0.421875q0 -0.34375 -0.25 -0.5625q-0.234375 -0.21875 -0.546875 -0.359375l-2.234375 -0.90625q-0.90625 -0.359375 -1.390625 -1.125q-0.46875 -0.765625 -0.46875 -1.875q0 -0.796875 0.296875 -1.40625q0.3125 -0.625 0.8125 -1.03125q0.5 -0.421875 1.140625 -0.625q0.65625 -0.21875 1.359375 -0.21875q0.578125 0 1.125 0.171875q0.5625 0.15625 1.046875 0.5q0.484375 0.328125 0.84375 0.8125q0.359375 0.46875 0.53125 1.09375l-2.1875 0.671875q-0.09375 -0.34375 -0.28125 -0.625q-0.15625 -0.25 -0.421875 -0.4375q-0.25 -0.203125 -0.640625 -0.203125q-0.21875 0 -0.421875 0.046875q-0.203125 0.03125 -0.375 0.140625q-0.15625 0.109375 -0.265625 0.28125q-0.09375 0.15625 -0.09375 0.375q0 0.171875 0.09375 0.328125q0.109375 0.140625 0.25 0.25q0.140625 0.109375 0.296875 0.203125q0.15625 0.078125 0.296875 0.125l1.890625 0.796875q0.453125 0.203125 0.84375 0.46875q0.390625 0.265625 0.6875 0.640625q0.296875 0.375 0.453125 0.875q0.171875 0.484375 0.171875 1.140625q0 0.859375 -0.328125 1.5q-0.3125 0.640625 -0.84375 1.078125q-0.53125 0.421875 -1.203125 0.625q-0.671875 0.21875 -1.359375 0.21875q-0.8125 0 -1.453125 -0.1875q-0.640625 -0.1875 -1.109375 -0.53125q-0.46875 -0.359375 -0.78125 -0.859375q-0.296875 -0.515625 -0.4375 -1.125l2.046875 -0.671875zm7.6541443 -7.5625l0.265625 -2.3125l2.328125 -0.34375l0 2.65625l2.1875 0l-0.109375 2.0l-2.078125 0l0 5.890625q0 0.3125 0.125 0.515625q0.140625 0.203125 0.328125 0.3125q0.203125 0.109375 0.4375 0.15625q0.25 0.03125 0.484375 0.03125q0.28125 0 0.46875 -0.03125q0.09375 -0.015625 0.1875 -0.03125l0 1.828125q-0.203125 0.078125 -0.5 0.140625q-0.25 0.046875 -0.640625 0.078125q-0.375 0.046875 -0.890625 0.046875q-0.4375 0 -0.90625 -0.125q-0.46875 -0.125 -0.859375 -0.40625q-0.390625 -0.296875 -0.65625 -0.78125q-0.25 -0.484375 -0.25 -1.203125l0 -6.421875l-1.484375 0l0.109375 -2.0l1.453125 0zm5.996277 0.21875l2.671875 -0.21875l0 1.71875q0.21875 -0.3125 0.53125 -0.640625q0.328125 -0.328125 0.734375 -0.59375q0.40625 -0.265625 0.890625 -0.4375q0.484375 -0.1875 1.078125 -0.1875q0.046875 0 0.09375 0.015625q0.0625 0 0.109375 0q0.046875 0.015625 0.125 0.015625l0 3.1875q-0.4375 -0.125 -0.890625 -0.265625q-0.4375 -0.140625 -0.890625 -0.140625q-0.453125 0 -0.890625 0.203125q-0.4375 0.1875 -0.890625 0.6875l0 7.015625l-2.671875 0.21875l0 -10.578125zm10.163742 6.9375q0 0.78125 0.234375 1.109375q0.25 0.3125 0.640625 0.3125q0.1875 0 0.390625 -0.0625q0.21875 -0.078125 0.453125 -0.203125q0.234375 -0.125 0.46875 -0.265625q0.234375 -0.15625 0.484375 -0.3125l0 -7.515625l2.671875 -0.21875l0 10.578125l-2.671875 0.21875l0 -1.359375q-0.78125 0.6875 -1.546875 1.09375q-0.75 0.40625 -1.421875 0.40625q-0.515625 0 -0.953125 -0.1875q-0.4375 -0.1875 -0.765625 -0.53125q-0.3125 -0.359375 -0.484375 -0.859375q-0.171875 -0.5 -0.171875 -1.125l0 -8.015625l2.671875 -0.21875l0 7.15625zm14.16626 -0.21875q-0.109375 0.875 -0.328125 1.609375q-0.203125 0.734375 -0.59375 1.265625q-0.375 0.53125 -0.984375 0.828125q-0.59375 0.296875 -1.5 0.296875q-0.640625 0 -1.171875 -0.21875q-0.53125 -0.203125 -0.953125 -0.578125q-0.421875 -0.375 -0.75 -0.890625q-0.3125 -0.515625 -0.53125 -1.125q-0.203125 -0.625 -0.3125 -1.296875q-0.109375 -0.6875 -0.109375 -1.390625q0 -1.03125 0.21875 -2.03125q0.234375 -1.0 0.703125 -1.78125q0.484375 -0.796875 1.21875 -1.28125q0.734375 -0.484375 1.75 -0.484375q0.71875 0 1.328125 0.28125q0.625 0.28125 1.078125 0.796875q0.453125 0.5 0.703125 1.203125q0.265625 0.703125 0.296875 1.546875l-2.53125 0.109375q-0.03125 -0.21875 -0.078125 -0.53125q-0.03125 -0.3125 -0.125 -0.59375q-0.078125 -0.296875 -0.25 -0.5q-0.171875 -0.203125 -0.453125 -0.203125q-0.296875 0 -0.5 0.1875q-0.203125 0.1875 -0.328125 0.5q-0.125 0.296875 -0.203125 0.671875q-0.0625 0.375 -0.09375 0.75q-0.03125 0.375 -0.046875 0.71875q0 0.328125 0 0.546875q0 0.21875 0 0.5625q0.015625 0.328125 0.046875 0.703125q0.03125 0.359375 0.109375 0.734375q0.078125 0.375 0.21875 0.671875q0.140625 0.296875 0.34375 0.484375q0.21875 0.1875 0.53125 0.1875q0.203125 0 0.34375 -0.09375q0.15625 -0.09375 0.265625 -0.21875q0.109375 -0.140625 0.1875 -0.328125q0.078125 -0.1875 0.140625 -0.359375q0.109375 -0.453125 0.125 -1.015625l2.234375 0.265625zm2.2857208 -6.9375l0.265625 -2.3125l2.328125 -0.34375l0 2.65625l2.1875 0l-0.109375 2.0l-2.078125 0l0 5.890625q0 0.3125 0.125 0.515625q0.140625 0.203125 0.328125 0.3125q0.203125 0.109375 0.4375 0.15625q0.25 0.03125 0.484375 0.03125q0.28125 0 0.46875 -0.03125q0.09375 -0.015625 0.1875 -0.03125l0 1.828125q-0.203125 0.078125 -0.5 0.140625q-0.25 0.046875 -0.640625 0.078125q-0.375 0.046875 -0.890625 0.046875q-0.4375 0 -0.90625 -0.125q-0.46875 -0.125 -0.859375 -0.40625q-0.390625 -0.296875 -0.65625 -0.78125q-0.25 -0.484375 -0.25 -1.203125l0 -6.421875l-1.484375 0l0.109375 -2.0l1.453125 0zm5.996277 0.21875l2.671875 -0.21875l0 10.578125l-2.671875 0.21875l0 -10.578125zm2.671875 -4.375l0 2.671875l-2.671875 0l0 -2.65625l2.671875 -0.015625zm5.7108154 15.09375q-1.0 0 -1.75 -0.40625q-0.75 -0.421875 -1.25 -1.15625q-0.5 -0.734375 -0.75 -1.765625q-0.25 -1.03125 -0.25 -2.28125q0 -1.1875 0.25 -2.1875q0.25 -1.015625 0.75 -1.734375q0.5 -0.734375 1.25 -1.140625q0.75 -0.40625 1.75 -0.40625q0.96875 0 1.71875 0.40625q0.765625 0.40625 1.265625 1.140625q0.5 0.71875 0.765625 1.734375q0.265625 1.0 0.265625 2.1875q0 1.25 -0.265625 2.28125q-0.265625 1.03125 -0.765625 1.765625q-0.5 0.734375 -1.265625 1.15625q-0.75 0.40625 -1.71875 0.40625zm-0.015625 -1.984375q0.328125 0 0.546875 -0.171875q0.234375 -0.1875 0.375 -0.46875q0.15625 -0.296875 0.234375 -0.671875q0.09375 -0.375 0.125 -0.78125q0.046875 -0.40625 0.046875 -0.796875q0.015625 -0.390625 0.015625 -0.734375q0 -0.3125 -0.015625 -0.703125q0 -0.390625 -0.046875 -0.78125q-0.03125 -0.40625 -0.125 -0.78125q-0.078125 -0.375 -0.234375 -0.671875q-0.140625 -0.296875 -0.375 -0.46875q-0.21875 -0.171875 -0.546875 -0.171875q-0.328125 0 -0.5625 0.171875q-0.21875 0.171875 -0.375 0.46875q-0.140625 0.296875 -0.21875 0.671875q-0.078125 0.375 -0.125 0.78125q-0.03125 0.390625 -0.03125 0.78125q0 0.390625 0 0.703125q0 0.34375 0 0.734375q0 0.390625 0.03125 0.796875q0.046875 0.40625 0.125 0.78125q0.078125 0.375 0.21875 0.671875q0.140625 0.28125 0.375 0.46875q0.234375 0.171875 0.5625 0.171875zm10.996201 -5.40625q0 -0.78125 -0.28125 -1.09375q-0.265625 -0.3125 -0.703125 -0.3125q-0.34375 0 -0.796875 0.234375q-0.4375 0.21875 -0.890625 0.5l0 7.703125l-2.671875 0.21875l0 -10.578125l2.671875 -0.21875l0 1.359375q0.796875 -0.6875 1.578125 -1.09375q0.796875 -0.40625 1.484375 -0.40625q0.5 0 0.90625 0.1875q0.421875 0.1875 0.71875 0.546875q0.3125 0.34375 0.484375 0.84375q0.171875 0.5 0.171875 1.125l0 8.015625l-2.671875 0.21875l0 -7.25z" fill-rule="nonzero"></path><path fill="#ffe599" d="m45.72441 111.09322l241.88976 0l0 41.763786l-241.88976 0z" fill-rule="nonzero"></path><path stroke="#000000" stroke-width="1.0" stroke-linejoin="round" stroke-linecap="butt" d="m45.72441 111.09322l241.88976 0l0 41.763786l-241.88976 0z" fill-rule="nonzero"></path><path fill="#000000" d="m111.1308 124.5001l2.4375 0q1.75 0 2.671875 0.84375q0.9375 0.84375 0.9375 2.15625q0 1.2968826 -1.15625 2.3906326q-1.140625 1.078125 -3.0625 1.078125q-0.53125 0 -1.140625 -0.09375l0.125 3.46875q0.03125 0.296875 0.296875 0.421875q0.28125 0.109375 1.0625 0.265625l-0.046875 0.46875q-1.0 -0.046875 -2.1875 -0.046875q-1.1875 0 -2.1875 0.046875l-0.046875 -0.46875q0.8125 -0.15625 1.09375 -0.28125q0.296875 -0.125 0.328125 -0.40625q0.125 -0.9375 0.125 -3.421875q0 -4.0156326 -0.09375 -5.0000076l-0.03125 -0.328125q-0.03125 -0.28125 -0.296875 -0.40625q-0.25 -0.125 -1.015625 -0.28125l0.046875 -0.46875q1.0 0.0625 2.140625 0.0625zm1.578125 5.7968826q1.375 0 2.15625 -0.65625q0.78125 -0.65625 0.78125 -1.9843826q0 -1.34375 -0.671875 -1.90625q-0.671875 -0.578125 -2.015625 -0.578125q-0.59375 0 -0.75 0.078125q-0.15625 0.078125 -0.234375 0.453125q-0.15625 0.84375 -0.15625 4.5468826q0.46875 0.046875 0.890625 0.046875zm9.528519 1.796875q-1.3125 0.03125 -2.0 0.5q-0.6875 0.453125 -0.6875 1.0q0 0.546875 0.28125 0.796875q0.28125 0.25 0.90625 0.25q0.625 0 1.5 -0.53125l0 -2.015625zm1.171875 3.5q-0.96875 0 -1.125 -1.03125q-1.40625 1.03125 -2.4375 1.03125q-0.6875 0 -1.171875 -0.421875q-0.46875 -0.421875 -0.46875 -1.3125q0 -0.90625 0.953125 -1.625q0.953125 -0.71875 3.078125 -0.859375l0 -1.484375q0 -0.453125 -0.328125 -0.6875q-0.328125 -0.25 -0.921875 -0.25q-0.59375 0 -0.953125 0.328125q-0.34375 0.328125 -0.34375 0.84375q0 0.1875 0.046875 0.4375l-0.34375 0.15625q-0.328125 -0.171875 -0.609375 -0.46875q-0.28125 -0.3125 -0.28125 -0.453125q0 -0.140625 0.21875 -0.390625q0.21875 -0.265625 0.578125 -0.5625q0.375 -0.3125 0.984375 -0.53125q0.625 -0.21875 1.390625 -0.21875q0.765625 0 1.25 0.375q0.484375 0.375 0.484375 1.359375q0 0.984375 0.09375 4.15625q0.015625 0.765625 0.578125 0.765625q0.234375 0 0.484375 -0.125l0.171875 0.40625q-0.609375 0.5625 -1.328125 0.5625zm4.8745117 -6.96875q-0.484375 0.046875 -0.71875 0.1875q-0.234375 0.140625 -0.234375 0.234375q0 0.09375 1.6875 5.3125q1.765625 -5.015625 1.765625 -5.28125q0 -0.34375 -0.875 -0.453125l-0.0625 -0.46875q0.546875 0.046875 1.15625 0.046875l1.640625 -0.046875l0.046875 0.46875q-0.828125 0.109375 -1.015625 0.59375q-0.6875 2.140625 -2.3125 6.234375q-1.234375 3.125 -2.359375 3.90625q-0.3125 0.21875 -0.484375 0.25q-0.171875 0.046875 -0.328125 0.046875q-0.15625 0 -0.453125 -0.375q-0.296875 -0.375 -0.390625 -0.734375l0.234375 -0.3125q0.296875 0.140625 0.71875 0.140625q1.15625 0 2.3125 -2.921875l-0.5625 -0.34375q-1.234375 -3.796875 -1.90625 -5.3125l-0.234375 -0.515625q-0.21875 -0.53125 -0.984375 -0.65625l-0.046875 -0.46875q1.109375 0.046875 1.703125 0.046875l1.65625 -0.046875l0.046875 0.46875zm11.665146 3.171875q0 2.0625 0.109375 2.6875l0.046875 0.203125q0.015625 0.109375 0.359375 0.21875q0.34375 0.09375 0.671875 0.125l-0.046875 0.46875q-0.765625 -0.046875 -1.765625 -0.046875q-0.984375 0 -1.765625 0.046875l0.0625 -0.46875q0.296875 -0.03125 0.640625 -0.125q0.34375 -0.109375 0.359375 -0.21875q0.125 -0.5625 0.125 -2.890625l0 -1.5625q0 -0.625 -0.375 -0.859375q-0.359375 -0.234375 -0.875 -0.234375q-0.5 0 -0.796875 0.046875q-0.28125 0.03125 -0.515625 0.09375q-0.296875 0.078125 -0.828125 0.296875l0 2.21875q0 1.96875 0.125 2.6875l0.046875 0.203125q0.015625 0.109375 0.359375 0.21875q0.34375 0.09375 0.671875 0.125l-0.046875 0.46875q-0.765625 -0.046875 -1.765625 -0.046875q-0.984375 0 -1.75 0.046875l0.046875 -0.46875q0.296875 -0.03125 0.640625 -0.125q0.34375 -0.109375 0.359375 -0.21875q0.109375 -0.5625 0.109375 -2.25q0 -2.71875 -0.125 -3.328125l-1.015625 -0.296875l-0.03125 -0.421875q1.015625 0 2.109375 -0.28125l0.296875 0.140625q-0.015625 0.40625 -0.015625 0.765625q1.78125 -0.921875 3.03125 -0.921875q1.25 0 1.484375 0.9375q1.671875 -0.9375 3.03125 -0.9375q0.8125 0 1.21875 0.328125q0.421875 0.3125 0.421875 1.1875l0 2.1875q0 2.0625 0.109375 2.6875l0.046875 0.203125q0.015625 0.109375 0.359375 0.21875q0.34375 0.09375 0.671875 0.125l-0.046875 0.46875q-0.78125 -0.046875 -1.765625 -0.046875q-0.984375 0 -1.765625 0.046875l0.046875 -0.46875q0.3125 -0.03125 0.65625 -0.125q0.34375 -0.109375 0.359375 -0.21875q0.125 -0.5625 0.125 -2.890625l0 -1.5625q0 -0.625 -0.375 -0.859375q-0.359375 -0.234375 -1.296875 -0.234375q-0.9375 0 -1.734375 0.4375l0 2.21875zm11.47052 -1.46875q0 -0.734375 -0.421875 -1.09375q-0.40625 -0.359375 -0.921875 -0.359375q-0.75 0 -1.296875 0.59375q-0.546875 0.59375 -0.71875 1.453125l3.3125 -0.125q0.046875 -0.234375 0.046875 -0.46875zm-1.390625 5.265625q-1.703125 0 -2.5625 -0.96875q-0.859375 -0.96875 -0.859375 -2.578125q0 -1.609375 0.953125 -2.78125q0.953125 -1.171875 2.875 -1.171875q0.96875 0 1.6875 0.6875q0.734375 0.6875 0.734375 2.046875l-0.546875 0.65625q-0.09375 -0.015625 -1.515625 -0.015625q-1.40625 0 -2.828125 0.109375l0 0.140625q0 1.46875 0.609375 2.203125q0.609375 0.71875 1.65625 0.71875q1.0625 0 2.234375 -0.515625l0.1875 0.484375q-1.234375 0.984375 -2.625 0.984375zm6.0940094 -6.015625l-0.015625 2.21875q0 2.0625 0.125 2.6875l0.03125 0.203125q0.015625 0.109375 0.359375 0.21875q0.34375 0.09375 0.671875 0.125l-0.046875 0.46875q-0.765625 -0.046875 -1.765625 -0.046875q-0.984375 0 -1.75 0.046875l0.046875 -0.46875q0.296875 -0.03125 0.640625 -0.125q0.34375 -0.109375 0.359375 -0.21875q0.125 -0.5625 0.125 -2.25q0 -2.71875 -0.125 -3.328125l-1.015625 -0.296875l-0.03125 -0.421875q1.015625 0 2.109375 -0.28125l0.296875 0.140625l0 0.765625q1.78125 -0.921875 3.09375 -0.921875q0.796875 0 1.203125 0.328125q0.421875 0.3125 0.421875 1.1875l0 2.1875q0 2.0625 0.109375 2.6875l0.046875 0.203125q0.03125 0.109375 0.375 0.21875q0.34375 0.09375 0.65625 0.125l-0.046875 0.46875q-0.765625 -0.046875 -1.765625 -0.046875q-0.984375 0 -1.75 0.046875l0.046875 -0.46875q0.296875 -0.03125 0.640625 -0.125q0.34375 -0.109375 0.359375 -0.21875q0.125 -0.5625 0.125 -2.890625l0 -1.5625q0 -0.625 -0.375 -0.859375q-0.359375 -0.234375 -1.234375 -0.234375q-0.875 0 -1.921875 0.4375zm9.319397 6.015625q-1.671875 0 -1.671875 -1.59375q0.015625 -1.40625 0.015625 -2.578125q0 -1.1875 -0.03125 -2.46875l-1.015625 0.015625l-0.046875 -0.171875l0.359375 -0.625q0.21875 0.046875 0.671875 0.0625l-0.0625 -1.4687576l1.0625 -0.9375l0.296875 0.140625q-0.03125 1.1875 -0.03125 2.2500076l2.359375 -0.015625l0.078125 0.1875l-0.578125 0.640625q-0.546875 -0.0625 -1.859375 -0.078125l0 2.140625q0 2.0 0.046875 2.875q0.046875 0.71875 0.84375 0.71875q0.640625 0 1.40625 -0.375l0.203125 0.53125q-1.140625 0.75 -2.046875 0.75zm9.232025 -8.562508q-0.171875 4.0000076 -0.171875 5.6406326l0.0625 1.671875q0.046875 0.390625 0.84375 0.5625q0.1875 0.03125 0.65625 0.125l-0.046875 0.46875q-1.015625 -0.046875 -2.203125 -0.046875q-1.171875 0 -1.84375 0.046875l-0.046875 -0.46875q0.765625 -0.15625 1.046875 -0.28125q0.296875 -0.125 0.328125 -0.40625q0.3125 -2.59375 0.3125 -6.6250076l-0.0625 -2.125q-0.03125 -0.28125 -0.296875 -0.40625q-0.25 -0.125 -1.015625 -0.28125l0.046875 -0.46875q1.015625 0.0625 2.78125 0.0625l3.8125 9.437508l3.8125 -9.437508q1.8125 0 2.828125 -0.0625l0.046875 0.46875q-0.765625 0.15625 -1.03125 0.28125q-0.25 0.125 -0.296875 0.4375q-0.046875 0.296875 -0.046875 1.046875q0 0.75 0.078125 3.3125076q0.15625 3.171875 0.25 4.0625l0.046875 0.296875q0.03125 0.296875 0.296875 0.421875q0.265625 0.109375 1.0625 0.265625l-0.0625 0.46875q-1.0 -0.046875 -2.1875 -0.046875q-1.1875 0 -2.1875 0.046875l-0.046875 -0.46875q0.828125 -0.15625 1.125 -0.28125q0.296875 -0.125 0.296875 -0.40625q0.015625 -0.515625 0.015625 -2.265625q0 -1.75 -0.203125 -5.0468826l-0.09375 0l-3.4375 8.406258l-0.984375 0.171875l-3.421875 -8.578133l-0.0625 0zm17.03328 3.2968826q0 -0.734375 -0.421875 -1.09375q-0.40625 -0.359375 -0.921875 -0.359375q-0.75 0 -1.296875 0.59375q-0.546875 0.59375 -0.71875 1.453125l3.3125 -0.125q0.046875 -0.234375 0.046875 -0.46875zm-1.390625 5.265625q-1.703125 0 -2.5625 -0.96875q-0.859375 -0.96875 -0.859375 -2.578125q0 -1.609375 0.953125 -2.78125q0.953125 -1.171875 2.875 -1.171875q0.96875 0 1.6875 0.6875q0.734375 0.6875 0.734375 2.046875l-0.546875 0.65625q-0.09375 -0.015625 -1.515625 -0.015625q-1.40625 0 -2.828125 0.109375l0 0.140625q0 1.46875 0.609375 2.203125q0.609375 0.71875 1.65625 0.71875q1.0625 0 2.234375 -0.515625l0.1875 0.484375q-1.234375 0.984375 -2.625 0.984375zm6.4533844 0q-1.671875 0 -1.671875 -1.59375q0.015625 -1.40625 0.015625 -2.578125q0 -1.1875 -0.03125 -2.46875l-1.015625 0.015625l-0.046875 -0.171875l0.359375 -0.625q0.21875 0.046875 0.671875 0.0625l-0.0625 -1.4687576l1.0625 -0.9375l0.296875 0.140625q-0.03125 1.1875 -0.03125 2.2500076l2.359375 -0.015625l0.078125 0.1875l-0.578125 0.640625q-0.546875 -0.0625 -1.859375 -0.078125l0 2.140625q0 2.0 0.046875 2.875q0.046875 0.71875 0.84375 0.71875q0.640625 0 1.40625 -0.375l0.203125 0.53125q-1.140625 0.75 -2.046875 0.75zm5.91951 -0.09375q-0.765625 -0.046875 -1.765625 -0.046875q-0.984375 0 -1.765625 0.046875l0.0625 -0.46875q0.296875 -0.03125 0.640625 -0.125q0.34375 -0.109375 0.359375 -0.21875q0.109375 -1.046875 0.109375 -4.0q0 -4.8125076 -0.09375 -5.6406326l-0.03125 -0.265625l-1.03125 -0.296875l-0.03125 -0.421875q1.03125 0 2.125 -0.296875l0.296875 0.15625q-0.03125 1.875 -0.03125 5.0937576q1.78125 -0.921875 3.203125 -0.921875q0.796875 0 1.203125 0.328125q0.421875 0.3125 0.421875 1.1875l0 2.1875q0 2.0625 0.125 2.6875l0.03125 0.203125q0.015625 0.109375 0.359375 0.21875q0.359375 0.09375 0.671875 0.125l-0.046875 0.46875q-0.765625 -0.046875 -1.765625 -0.046875q-0.984375 0 -1.75 0.046875l0.046875 -0.46875q0.296875 -0.03125 0.640625 -0.125q0.34375 -0.109375 0.359375 -0.21875q0.125 -0.5625 0.125 -2.890625l0 -1.5625q0 -0.625 -0.375 -0.859375q-0.359375 -0.234375 -0.875 -0.234375q-0.5 0 -0.8125 0.046875q-0.3125 0.03125 -0.578125 0.09375q-0.625 0.171875 -0.828125 0.25l-0.15625 0.046875q0 4.75 0.171875 5.109375q0.015625 0.109375 0.359375 0.21875q0.34375 0.09375 0.671875 0.125l-0.046875 0.46875zm9.381149 -6.625q-0.65625 0 -1.140625 0.328125q-0.46875 0.328125 -0.6875 0.828125q-0.4375 0.90625 -0.4375 1.734375q0 1.3125 0.53125 2.1875q0.53125 0.875 1.65625 0.875q0.609375 0 1.078125 -0.28125q0.46875 -0.28125 0.703125 -0.71875q0.46875 -0.84375 0.5 -1.671875q0 -3.28125 -2.203125 -3.28125zm0.078125 -0.78125q1.828125 0 2.65625 0.9375q0.84375 0.921875 0.84375 2.578125q0 1.65625 -0.953125 2.828125q-0.953125 1.15625 -2.78125 1.15625q-1.828125 0 -2.65625 -0.921875q-0.828125 -0.921875 -0.828125 -2.5625q0 -1.640625 0.953125 -2.828125q0.953125 -1.1875 2.765625 -1.1875zm10.15152 6.46875q-1.109375 1.03125 -2.421875 1.03125q-1.3125 0 -2.15625 -0.953125q-0.828125 -0.953125 -0.828125 -2.71875q0 -1.765625 1.0 -2.796875q1.0 -1.046875 2.46875 -1.046875q0.796875 0 1.921875 0.5625q0 -2.9687576 -0.09375 -3.6406326l-0.03125 -0.21875l-1.03125 -0.296875l-0.03125 -0.421875q1.03125 0 2.109375 -0.296875l0.3125 0.15625q-0.03125 2.0 -0.03125 5.6718826q0 3.65625 0.03125 4.1875q0.03125 0.515625 0.125 0.65625q0.109375 0.140625 0.328125 0.203125q0.328125 0.09375 0.78125 0.125l-0.046875 0.46875q-0.578125 0.046875 -1.75 0.28125q-0.484375 -0.203125 -0.65625 -0.953125zm-1.515625 -5.515625q-1.265625 0 -1.875 0.828125q-0.59375 0.828125 -0.59375 2.046875q0 1.21875 0.53125 1.953125q0.53125 0.71875 1.5 0.71875q0.984375 0 1.859375 -0.5625q0.078125 -1.28125 0.078125 -4.6875q-0.828125 -0.296875 -1.5 -0.296875z" fill-rule="nonzero"></path><path fill="#a4c2f4" d="m45.72441 58.991253l241.88976 0l0 41.763775l-241.88976 0z" fill-rule="nonzero"></path><path stroke="#000000" stroke-width="1.0" stroke-linejoin="round" stroke-linecap="butt" d="m45.72441 58.991253l241.88976 0l0 41.763775l-241.88976 0z" fill-rule="nonzero"></path><path fill="#000000" d="m113.839294 73.491875q-0.125 0.953125 -0.125 3.421875q0 4.015625 0.09375 5.0l0.03125 0.328125q0.03125 0.296875 0.296875 0.421875q0.28125 0.109375 1.0625 0.265625l-0.046875 0.46875q-1.0 -0.046875 -2.1875 -0.046875q-1.1875 0 -2.1875 0.046875l-0.046875 -0.46875q0.8125 -0.15625 1.09375 -0.28125q0.296875 -0.125 0.328125 -0.40625q0.125 -0.9375 0.125 -3.421875q0 -4.015625 -0.09375 -5.0l-0.03125 -0.328125q-0.03125 -0.28125 -0.296875 -0.40625q-0.25 -0.125 -1.015625 -0.28125l0.046875 -0.46875q1.0 0.0625 2.109375 0.0625q1.109375 0 2.109375 -0.0625l0.046875 0.46875q-0.765625 0.15625 -1.03125 0.28125q-0.25 0.125 -0.28125 0.40625zm4.6595154 3.984375l-0.015625 2.21875q0 2.0625 0.125 2.6875l0.03125 0.203125q0.015625 0.109375 0.359375 0.21875q0.34375 0.09375 0.671875 0.125l-0.046875 0.46875q-0.765625 -0.046875 -1.765625 -0.046875q-0.984375 0 -1.75 0.046875l0.046875 -0.46875q0.296875 -0.03125 0.640625 -0.125q0.34375 -0.109375 0.359375 -0.21875q0.125 -0.5625 0.125 -2.25q0 -2.71875 -0.125 -3.328125l-1.015625 -0.296875l-0.03125 -0.421875q1.015625 0 2.109375 -0.28125l0.296875 0.140625l0 0.765625q1.78125 -0.921875 3.09375 -0.921875q0.796875 0 1.203125 0.328125q0.421875 0.3125 0.421875 1.1875l0 2.1875q0 2.0625 0.109375 2.6875l0.046875 0.203125q0.03125 0.109375 0.375 0.21875q0.34375 0.09375 0.65625 0.125l-0.046875 0.46875q-0.765625 -0.046875 -1.765625 -0.046875q-0.984375 0 -1.75 0.046875l0.046875 -0.46875q0.296875 -0.03125 0.640625 -0.125q0.34375 -0.109375 0.359375 -0.21875q0.125 -0.5625 0.125 -2.890625l0 -1.5625q0 -0.625 -0.375 -0.859375q-0.359375 -0.234375 -1.234375 -0.234375q-0.875 0 -1.921875 0.4375zm11.147522 -1.203125l0.234375 0.125q0 1.03125 0.09375 1.578125l-0.421875 0.140625q-0.203125 -0.8125 -0.578125 -1.125q-0.375 -0.328125 -0.953125 -0.328125q-0.578125 0 -0.921875 0.3125q-0.328125 0.296875 -0.328125 0.71875q0 0.71875 0.828125 1.171875l1.640625 0.90625q1.046875 0.59375 1.046875 1.703125q0 0.8125 -0.65625 1.421875q-0.640625 0.59375 -1.84375 0.59375q-1.1875 0 -2.453125 -0.390625q0.1875 -1.125 0.1875 -1.84375l0.421875 -0.140625q0.140625 0.578125 0.203125 0.78125q0.078125 0.203125 0.265625 0.515625q0.1875 0.296875 0.46875 0.390625q0.296875 0.09375 0.84375 0.09375q0.5625 0 0.9375 -0.3125q0.375 -0.328125 0.375 -0.765625q0 -0.671875 -0.765625 -1.09375l-1.71875 -0.953125q-1.0625 -0.5625 -1.0625 -1.71875q0 -0.8125 0.625 -1.4375q0.625 -0.625 1.734375 -0.625q1.125 0 1.796875 0.28125zm4.28389 7.21875q-1.671875 0 -1.671875 -1.59375q0.015625 -1.40625 0.015625 -2.578125q0 -1.1875 -0.03125 -2.46875l-1.015625 0.015625l-0.046875 -0.171875l0.359375 -0.625q0.21875 0.046875 0.671875 0.0625l-0.0625 -1.46875l1.0625 -0.9375l0.296875 0.140625q-0.03125 1.1875 -0.03125 2.25l2.359375 -0.015625l0.078125 0.1875l-0.578125 0.640625q-0.546875 -0.0625 -1.859375 -0.078125l0 2.140625q0 2.0 0.046875 2.875q0.046875 0.71875 0.84375 0.71875q0.640625 0 1.40625 -0.375l0.203125 0.53125q-1.140625 0.75 -2.046875 0.75zm7.216385 -7.59375q0.125 0 0.421875 0.375q0.296875 0.375 0.390625 0.734375l-0.234375 0.3125q-0.578125 -0.21875 -1.203125 -0.21875q-0.625 0 -1.140625 0.515625q-0.515625 0.515625 -0.515625 1.671875q0.015625 2.8125 0.140625 3.28125q0.015625 0.125 0.453125 0.234375q0.453125 0.09375 0.9375 0.125l-0.0625 0.46875q-0.765625 -0.046875 -1.9375 -0.046875q-1.171875 0 -1.9375 0.046875l0.046875 -0.46875q0.3125 -0.03125 0.65625 -0.125q0.359375 -0.109375 0.375 -0.21875q0.125 -0.5625 0.125 -2.25q0 -2.71875 -0.125 -3.328125l-1.015625 -0.296875l-0.03125 -0.421875q1.015625 0 2.109375 -0.28125l0.296875 0.140625q-0.03125 0.25 -0.03125 1.3125q0.46875 -0.765625 1.171875 -1.15625q0.71875 -0.40625 1.109375 -0.40625zm3.907013 7.59375q-1.625 0 -1.625 -1.65625l0 -2.140625q0 -2.15625 -0.109375 -2.6875l-0.953125 -0.296875l-0.03125 -0.421875q0.953125 0 2.03125 -0.28125l0.3125 0.140625q-0.046875 2.859375 -0.046875 5.203125q0 1.078125 1.296875 1.078125q0.546875 0 1.15625 -0.1875q0.625 -0.1875 1.0 -0.40625q0.0625 -0.875 0.0625 -2.03125q0 -2.1875 -0.125 -2.796875l-1.015625 -0.296875l-0.03125 -0.421875q1.03125 0 2.125 -0.28125l0.296875 0.140625q-0.046875 1.203125 -0.046875 3.96875l0.046875 1.875q0 0.265625 0.21875 0.421875q0.21875 0.15625 0.421875 0.203125q0.203125 0.03125 0.578125 0.046875l-0.046875 0.46875q-0.578125 0.046875 -1.75 0.28125q-0.484375 -0.203125 -0.65625 -0.953125q-1.53125 1.03125 -3.109375 1.03125zm12.550018 -1.046875q-1.328125 1.046875 -2.90625 1.046875q-1.5625 0 -2.40625 -0.984375q-0.84375 -1.0 -0.84375 -2.59375q0 -1.59375 0.984375 -2.75q0.984375 -1.171875 2.734375 -1.171875q0.734375 0 1.296875 0.234375q0.5625 0.234375 0.796875 0.46875q0.25 0.234375 0.25 0.390625q0 0.640625 -0.390625 1.15625l-0.375 0q-0.1875 -0.515625 -0.65625 -0.953125q-0.453125 -0.4375 -1.171875 -0.4375q-0.984375 0 -1.53125 0.890625q-0.53125 0.890625 -0.53125 2.1875q0 1.28125 0.625 1.953125q0.625 0.671875 1.734375 0.671875q1.125 0 2.203125 -0.640625l0.1875 0.53125zm3.4786377 1.046875q-1.671875 0 -1.671875 -1.59375q0.015625 -1.40625 0.015625 -2.578125q0 -1.1875 -0.03125 -2.46875l-1.015625 0.015625l-0.046875 -0.171875l0.359375 -0.625q0.21875 0.046875 0.671875 0.0625l-0.0625 -1.46875l1.0625 -0.9375l0.296875 0.140625q-0.03125 1.1875 -0.03125 2.25l2.359375 -0.015625l0.078125 0.1875l-0.578125 0.640625q-0.546875 -0.0625 -1.859375 -0.078125l0 2.140625q0 2.0 0.046875 2.875q0.046875 0.71875 0.84375 0.71875q0.640625 0 1.40625 -0.375l0.203125 0.53125q-1.140625 0.75 -2.046875 0.75zm4.91951 -9.390625q-0.234375 0.234375 -0.59375 0.234375q-0.34375 0 -0.59375 -0.234375q-0.234375 -0.25 -0.234375 -0.609375q0 -0.359375 0.234375 -0.59375q0.25 -0.25 0.59375 -0.25q0.359375 0 0.59375 0.25q0.25 0.234375 0.25 0.59375q0 0.359375 -0.25 0.609375zm0.0625 2.046875l-0.03125 3.546875q0 2.0625 0.125 2.6875l0.046875 0.203125q0.015625 0.109375 0.40625 0.21875q0.390625 0.09375 0.71875 0.125l-0.046875 0.46875q-0.765625 -0.046875 -1.875 -0.046875q-1.09375 0 -1.859375 0.046875l0.046875 -0.46875q0.328125 -0.03125 0.703125 -0.125q0.390625 -0.109375 0.40625 -0.21875q0.125 -0.5625 0.125 -2.25q0 -2.71875 -0.125 -3.328125l-1.015625 -0.296875l-0.03125 -0.421875q1.015625 0 2.109375 -0.28125l0.296875 0.140625zm5.790634 0.625q-0.65625 0 -1.140625 0.328125q-0.46875 0.328125 -0.6875 0.828125q-0.4375 0.90625 -0.4375 1.734375q0 1.3125 0.53125 2.1875q0.53125 0.875 1.65625 0.875q0.609375 0 1.078125 -0.28125q0.46875 -0.28125 0.703125 -0.71875q0.46875 -0.84375 0.5 -1.671875q0 -3.28125 -2.203125 -3.28125zm0.078125 -0.78125q1.828125 0 2.65625 0.9375q0.84375 0.921875 0.84375 2.578125q0 1.65625 -0.953125 2.828125q-0.953125 1.15625 -2.78125 1.15625q-1.828125 0 -2.65625 -0.921875q-0.828125 -0.921875 -0.828125 -2.5625q0 -1.640625 0.953125 -2.828125q0.953125 -1.1875 2.765625 -1.1875zm6.885895 1.484375l-0.015625 2.21875q0 2.0625 0.125 2.6875l0.03125 0.203125q0.015625 0.109375 0.359375 0.21875q0.34375 0.09375 0.671875 0.125l-0.046875 0.46875q-0.765625 -0.046875 -1.765625 -0.046875q-0.984375 0 -1.75 0.046875l0.046875 -0.46875q0.296875 -0.03125 0.640625 -0.125q0.34375 -0.109375 0.359375 -0.21875q0.125 -0.5625 0.125 -2.25q0 -2.71875 -0.125 -3.328125l-1.015625 -0.296875l-0.03125 -0.421875q1.015625 0 2.109375 -0.28125l0.296875 0.140625l0 0.765625q1.78125 -0.921875 3.09375 -0.921875q0.796875 0 1.203125 0.328125q0.421875 0.3125 0.421875 1.1875l0 2.1875q0 2.0625 0.109375 2.6875l0.046875 0.203125q0.03125 0.109375 0.375 0.21875q0.34375 0.09375 0.65625 0.125l-0.046875 0.46875q-0.765625 -0.046875 -1.765625 -0.046875q-0.984375 0 -1.75 0.046875l0.046875 -0.46875q0.296875 -0.03125 0.640625 -0.125q0.34375 -0.109375 0.359375 -0.21875q0.125 -0.5625 0.125 -2.890625l0 -1.5625q0 -0.625 -0.375 -0.859375q-0.359375 -0.234375 -1.234375 -0.234375q-0.875 0 -1.921875 0.4375zm10.569412 -5.1875q1.3125 0.109375 4.765625 0.109375q3.453125 0 4.765625 -0.109375l0 0.25q0 1.265625 0.1875 2.34375l-0.4375 0.203125q-0.40625 -1.3125 -0.984375 -1.65625q-0.578125 -0.359375 -2.171875 -0.359375q-0.484375 0 -0.53125 0.421875q-0.125 0.953125 -0.125 3.421875q0 4.015625 0.09375 5.0l0.03125 0.328125q0.03125 0.296875 0.296875 0.421875q0.28125 0.109375 1.0625 0.265625l-0.046875 0.46875q-1.015625 -0.046875 -2.203125 -0.046875q-1.171875 0 -2.1875 0.046875l-0.046875 -0.46875q0.8125 -0.15625 1.09375 -0.28125q0.296875 -0.125 0.328125 -0.40625q0.140625 -0.9375 0.140625 -3.421875q0 -4.015625 -0.109375 -5.0l-0.03125 -0.328125q-0.046875 -0.421875 -0.484375 -0.421875q-1.609375 0 -2.1875 0.359375q-0.5625 0.34375 -0.984375 1.65625l-0.4375 -0.203125q0.203125 -1.078125 0.203125 -2.34375l0 -0.25zm13.287643 4.234375q-0.484375 0.046875 -0.71875 0.1875q-0.234375 0.140625 -0.234375 0.234375q0 0.09375 1.6875 5.3125q1.765625 -5.015625 1.765625 -5.28125q0 -0.34375 -0.875 -0.453125l-0.0625 -0.46875q0.546875 0.046875 1.15625 0.046875l1.640625 -0.046875l0.046875 0.46875q-0.828125 0.109375 -1.015625 0.59375q-0.6875 2.140625 -2.3125 6.234375q-1.234375 3.125 -2.359375 3.90625q-0.3125 0.21875 -0.484375 0.25q-0.171875 0.046875 -0.328125 0.046875q-0.15625 0 -0.453125 -0.375q-0.296875 -0.375 -0.390625 -0.734375l0.234375 -0.3125q0.296875 0.140625 0.71875 0.140625q1.15625 0 2.3125 -2.921875l-0.5625 -0.34375q-1.234375 -3.796875 -1.90625 -5.3125l-0.234375 -0.515625q-0.21875 -0.53125 -0.984375 -0.65625l-0.046875 -0.46875q1.109375 0.046875 1.703125 0.046875l1.65625 -0.046875l0.046875 0.46875zm8.415146 6.125q1.28125 0 1.921875 -0.859375q0.640625 -0.859375 0.640625 -2.03125q0 -1.1875 -0.5625 -1.96875q-0.546875 -0.796875 -1.640625 -0.796875q-0.4375 0 -1.0 0.171875q-0.5625 0.15625 -0.828125 0.328125l0 4.890625q0.765625 0.265625 1.46875 0.265625zm-0.296875 4.90625q-0.765625 -0.046875 -1.859375 -0.046875q-1.09375 0 -1.859375 0.046875l0.046875 -0.453125q1.078125 -0.109375 1.109375 -0.3125q0.1875 -0.90625 0.1875 -3.890625q0 -4.796875 -0.09375 -5.609375l-0.03125 -0.28125l-1.03125 -0.296875l-0.03125 -0.421875q1.015625 0 2.109375 -0.28125l0.296875 0.140625l0 0.78125q1.25 -0.9375 2.546875 -0.9375q1.296875 0 2.09375 0.875q0.796875 0.859375 0.796875 2.703125q0 1.84375 -1.015625 2.890625q-1.0 1.03125 -2.453125 1.03125q-1.0625 0 -1.984375 -0.515625q0.015625 3.59375 0.09375 3.8125q0.03125 0.203125 1.125 0.3125l-0.046875 0.453125zm10.345398 -9.328125q0 -0.734375 -0.421875 -1.09375q-0.40625 -0.359375 -0.921875 -0.359375q-0.75 0 -1.296875 0.59375q-0.546875 0.59375 -0.71875 1.453125l3.3125 -0.125q0.046875 -0.234375 0.046875 -0.46875zm-1.390625 5.265625q-1.703125 0 -2.5625 -0.96875q-0.859375 -0.96875 -0.859375 -2.578125q0 -1.609375 0.953125 -2.78125q0.953125 -1.171875 2.875 -1.171875q0.96875 0 1.6875 0.6875q0.734375 0.6875 0.734375 2.046875l-0.546875 0.65625q-0.09375 -0.015625 -1.515625 -0.015625q-1.40625 0 -2.828125 0.109375l0 0.140625q0 1.46875 0.609375 2.203125q0.609375 0.71875 1.65625 0.71875q1.0625 0 2.234375 -0.515625l0.1875 0.484375q-1.234375 0.984375 -2.625 0.984375z" fill-rule="nonzero"></path><path fill="#b4a7d6" d="m45.72441 163.19519l241.88976 0l0 41.763794l-241.88976 0z" fill-rule="nonzero"></path><path stroke="#000000" stroke-width="1.0" stroke-linejoin="round" stroke-linecap="butt" d="m45.72441 163.19519l241.88976 0l0 41.763794l-241.88976 0z" fill-rule="nonzero"></path><path fill="#000000" d="m101.44416 176.49269q1.3125 0.109375 4.765625 0.109375q3.453125 0 4.765625 -0.109375l0 0.25q0 1.265625 0.1875 2.34375l-0.4375 0.203125q-0.40625 -1.3125 -0.984375 -1.65625q-0.578125 -0.359375 -2.171875 -0.359375q-0.484375 0 -0.53125 0.421875q-0.125 0.953125 -0.125 3.421875q0 4.015625 0.09375 5.0l0.03125 0.328125q0.03125 0.296875 0.296875 0.421875q0.28125 0.109375 1.0625 0.265625l-0.046875 0.46875q-1.015625 -0.046875 -2.203125 -0.046875q-1.171875 0 -2.1875 0.046875l-0.046875 -0.46875q0.8125 -0.15625 1.09375 -0.28125q0.296875 -0.125 0.328125 -0.40625q0.140625 -0.9375 0.140625 -3.421875q0 -4.015625 -0.109375 -5.0l-0.03125 -0.328125q-0.046875 -0.421875 -0.484375 -0.421875q-1.609375 0 -2.1875 0.359375q-0.5625 0.34375 -0.984375 1.65625l-0.4375 -0.203125q0.203125 -1.078125 0.203125 -2.34375l0 -0.25zm15.006393 3.609375q0.125 0 0.421875 0.375q0.296875 0.375 0.390625 0.734375l-0.234375 0.3125q-0.578125 -0.21875 -1.203125 -0.21875q-0.625 0 -1.140625 0.515625q-0.515625 0.515625 -0.515625 1.671875q0.015625 2.8125 0.140625 3.28125q0.015625 0.125 0.453125 0.234375q0.453125 0.09375 0.9375 0.125l-0.0625 0.46875q-0.765625 -0.046875 -1.9375 -0.046875q-1.171875 0 -1.9375 0.046875l0.046875 -0.46875q0.3125 -0.03125 0.65625 -0.125q0.359375 -0.109375 0.375 -0.21875q0.125 -0.5625 0.125 -2.25q0 -2.71875 -0.125 -3.328125l-1.015625 -0.296875l-0.03125 -0.421875q1.015625 0 2.109375 -0.28125l0.296875 0.140625q-0.03125 0.25 -0.03125 1.3125q0.46875 -0.765625 1.171875 -1.15625q0.71875 -0.40625 1.109375 -0.40625zm5.578888 4.09375q-1.3125 0.03125 -2.0 0.5q-0.6875 0.453125 -0.6875 1.0q0 0.546875 0.28125 0.796875q0.28125 0.25 0.90625 0.25q0.625 0 1.5 -0.53125l0 -2.015625zm1.171875 3.5q-0.96875 0 -1.125 -1.03125q-1.40625 1.03125 -2.4375 1.03125q-0.6875 0 -1.171875 -0.421875q-0.46875 -0.421875 -0.46875 -1.3125q0 -0.90625 0.953125 -1.625q0.953125 -0.71875 3.078125 -0.859375l0 -1.484375q0 -0.453125 -0.328125 -0.6875q-0.328125 -0.25 -0.921875 -0.25q-0.59375 0 -0.953125 0.328125q-0.34375 0.328125 -0.34375 0.84375q0 0.1875 0.046875 0.4375l-0.34375 0.15625q-0.328125 -0.171875 -0.609375 -0.46875q-0.28125 -0.3125 -0.28125 -0.453125q0 -0.140625 0.21875 -0.390625q0.21875 -0.265625 0.578125 -0.5625q0.375 -0.3125 0.984375 -0.53125q0.625 -0.21875 1.390625 -0.21875q0.765625 0 1.25 0.375q0.484375 0.375 0.484375 1.359375q0 0.984375 0.09375 4.15625q0.015625 0.765625 0.578125 0.765625q0.234375 0 0.484375 -0.125l0.171875 0.40625q-0.609375 0.5625 -1.328125 0.5625zm4.2495117 -6.015625l-0.015625 2.21875q0 2.0625 0.125 2.6875l0.03125 0.203125q0.015625 0.109375 0.359375 0.21875q0.34374237 0.09375 0.6718674 0.125l-0.046875 0.46875q-0.7656174 -0.046875 -1.7656174 -0.046875q-0.984375 0 -1.75 0.046875l0.046875 -0.46875q0.296875 -0.03125 0.640625 -0.125q0.34375 -0.109375 0.359375 -0.21875q0.125 -0.5625 0.125 -2.25q0 -2.71875 -0.125 -3.328125l-1.015625 -0.296875l-0.03125 -0.421875q1.015625 0 2.109375 -0.28125l0.296875 0.140625l0 0.765625q1.7812424 -0.921875 3.0937424 -0.921875q0.796875 0 1.203125 0.328125q0.421875 0.3125 0.421875 1.1875l0 2.1875q0 2.0625 0.109375 2.6875l0.046875 0.203125q0.03125 0.109375 0.375 0.21875q0.34375 0.09375 0.65625 0.125l-0.046875 0.46875q-0.765625 -0.046875 -1.765625 -0.046875q-0.984375 0 -1.75 0.046875l0.046875 -0.46875q0.296875 -0.03125 0.640625 -0.125q0.34375 -0.109375 0.359375 -0.21875q0.125 -0.5625 0.125 -2.890625l0 -1.5625q0 -0.625 -0.375 -0.859375q-0.359375 -0.234375 -1.234375 -0.234375q-0.875 0 -1.9218674 0.4375zm11.147514 -1.203125l0.234375 0.125q0 1.03125 0.09375 1.578125l-0.421875 0.140625q-0.203125 -0.8125 -0.578125 -1.125q-0.375 -0.328125 -0.953125 -0.328125q-0.578125 0 -0.921875 0.3125q-0.328125 0.296875 -0.328125 0.71875q0 0.71875 0.828125 1.171875l1.640625 0.90625q1.046875 0.59375 1.046875 1.703125q0 0.8125 -0.65625 1.421875q-0.640625 0.59375 -1.84375 0.59375q-1.1875 0 -2.453125 -0.390625q0.1875 -1.125 0.1875 -1.84375l0.421875 -0.140625q0.140625 0.578125 0.203125 0.78125q0.078125 0.203125 0.265625 0.515625q0.1875 0.296875 0.46875 0.390625q0.296875 0.09375 0.84375 0.09375q0.5625 0 0.9375 -0.3125q0.375 -0.328125 0.375 -0.765625q0 -0.671875 -0.765625 -1.09375l-1.71875 -0.953125q-1.0625 -0.5625 -1.0625 -1.71875q0 -0.8125 0.625 -1.4375q0.625 -0.625 1.734375 -0.625q1.125 0 1.796875 0.28125zm5.81514 3.71875q-1.3125 0.03125 -2.0 0.5q-0.6875 0.453125 -0.6875 1.0q0 0.546875 0.28125 0.796875q0.28125 0.25 0.90625 0.25q0.625 0 1.5 -0.53125l0 -2.015625zm1.171875 3.5q-0.96875 0 -1.125 -1.03125q-1.40625 1.03125 -2.4375 1.03125q-0.6875 0 -1.171875 -0.421875q-0.46875 -0.421875 -0.46875 -1.3125q0 -0.90625 0.953125 -1.625q0.953125 -0.71875 3.078125 -0.859375l0 -1.484375q0 -0.453125 -0.328125 -0.6875q-0.328125 -0.25 -0.921875 -0.25q-0.59375 0 -0.953125 0.328125q-0.34375 0.328125 -0.34375 0.84375q0 0.1875 0.046875 0.4375l-0.34375 0.15625q-0.328125 -0.171875 -0.609375 -0.46875q-0.28125 -0.3125 -0.28125 -0.453125q0 -0.140625 0.21875 -0.390625q0.21875 -0.265625 0.578125 -0.5625q0.375 -0.3125 0.984375 -0.53125q0.625 -0.21875 1.390625 -0.21875q0.765625 0 1.25 0.375q0.484375 0.375 0.484375 1.359375q0 0.984375 0.09375 4.15625q0.015625 0.765625 0.578125 0.765625q0.234375 0 0.484375 -0.125l0.171875 0.40625q-0.609375 0.5625 -1.328125 0.5625zm8.218262 -1.046875q-1.328125 1.046875 -2.90625 1.046875q-1.5625 0 -2.40625 -0.984375q-0.84375 -1.0 -0.84375 -2.59375q0 -1.59375 0.984375 -2.75q0.984375 -1.171875 2.734375 -1.171875q0.734375 0 1.296875 0.234375q0.5625 0.234375 0.796875 0.46875q0.25 0.234375 0.25 0.390625q0 0.640625 -0.390625 1.15625l-0.375 0q-0.1875 -0.515625 -0.65625 -0.953125q-0.453125 -0.4375 -1.171875 -0.4375q-0.984375 0 -1.53125 0.890625q-0.53125 0.890625 -0.53125 2.1875q0 1.28125 0.625 1.953125q0.625 0.671875 1.734375 0.671875q1.125 0 2.203125 -0.640625l0.1875 0.53125zm3.4786377 1.046875q-1.671875 0 -1.671875 -1.59375q0.015625 -1.40625 0.015625 -2.578125q0 -1.1875 -0.03125 -2.46875l-1.015625 0.015625l-0.046875 -0.171875l0.359375 -0.625q0.21875 0.046875 0.671875 0.0625l-0.0625 -1.46875l1.0625 -0.9375l0.296875 0.140625q-0.03125 1.1875 -0.03125 2.25l2.359375 -0.015625l0.078125 0.1875l-0.578125 0.640625q-0.546875 -0.0625 -1.859375 -0.078125l0 2.140625q0 2.0 0.046875 2.875q0.046875 0.71875 0.84375 0.71875q0.640625 0 1.40625 -0.375l0.203125 0.53125q-1.140625 0.75 -2.046875 0.75zm4.91951 -9.390625q-0.234375 0.234375 -0.59375 0.234375q-0.34375 0 -0.59375 -0.234375q-0.234375 -0.25 -0.234375 -0.609375q0 -0.359375 0.234375 -0.59375q0.25 -0.25 0.59375 -0.25q0.359375 0 0.59375 0.25q0.25 0.234375 0.25 0.59375q0 0.359375 -0.25 0.609375zm0.0625 2.046875l-0.03125 3.546875q0 2.0625 0.125 2.6875l0.046875 0.203125q0.015625 0.109375 0.40625 0.21875q0.390625 0.09375 0.71875 0.125l-0.046875 0.46875q-0.765625 -0.046875 -1.875 -0.046875q-1.09375 0 -1.859375 0.046875l0.046875 -0.46875q0.328125 -0.03125 0.703125 -0.125q0.390625 -0.109375 0.40625 -0.21875q0.125 -0.5625 0.125 -2.25q0 -2.71875 -0.125 -3.328125l-1.015625 -0.296875l-0.03125 -0.421875q1.015625 0 2.109375 -0.28125l0.296875 0.140625zm5.790634 0.625q-0.65625 0 -1.140625 0.328125q-0.46875 0.328125 -0.6875 0.828125q-0.4375 0.90625 -0.4375 1.734375q0 1.3125 0.53125 2.1875q0.53125 0.875 1.65625 0.875q0.609375 0 1.078125 -0.28125q0.46875 -0.28125 0.703125 -0.71875q0.46875 -0.84375 0.5 -1.671875q0 -3.28125 -2.203125 -3.28125zm0.078125 -0.78125q1.828125 0 2.65625 0.9375q0.84375 0.921875 0.84375 2.578125q0 1.65625 -0.953125 2.828125q-0.953125 1.15625 -2.78125 1.15625q-1.828125 0 -2.65625 -0.921875q-0.828125 -0.921875 -0.828125 -2.5625q0 -1.640625 0.953125 -2.828125q0.953125 -1.1875 2.765625 -1.1875zm6.88591 1.484375l-0.015625 2.21875q0 2.0625 0.125 2.6875l0.03125 0.203125q0.015625 0.109375 0.359375 0.21875q0.34375 0.09375 0.671875 0.125l-0.046875 0.46875q-0.765625 -0.046875 -1.765625 -0.046875q-0.98439026 0 -1.7500153 0.046875l0.046875 -0.46875q0.296875 -0.03125 0.640625 -0.125q0.34375 -0.109375 0.359375 -0.21875q0.12501526 -0.5625 0.12501526 -2.25q0 -2.71875 -0.12501526 -3.328125l-1.015625 -0.296875l-0.03125 -0.421875q1.015625 0 2.1093903 -0.28125l0.296875 0.140625l0 0.765625q1.78125 -0.921875 3.09375 -0.921875q0.796875 0 1.203125 0.328125q0.421875 0.3125 0.421875 1.1875l0 2.1875q0 2.0625 0.109375 2.6875l0.046875 0.203125q0.03125 0.109375 0.375 0.21875q0.34375 0.09375 0.65625 0.125l-0.046875 0.46875q-0.765625 -0.046875 -1.765625 -0.046875q-0.984375 0 -1.75 0.046875l0.046875 -0.46875q0.296875 -0.03125 0.640625 -0.125q0.34375 -0.109375 0.359375 -0.21875q0.125 -0.5625 0.125 -2.890625l0 -1.5625q0 -0.625 -0.375 -0.859375q-0.359375 -0.234375 -1.234375 -0.234375q-0.875 0 -1.921875 0.4375zm12.960022 -5.078125l2.84375 0q1.859375 0 3.3125 0.71875q1.625 0.828125 2.25 2.421875q0.34375 0.890625 0.34375 1.96875q0 2.578125 -1.578125 4.21875q-1.578125 1.625 -4.59375 1.625l-2.578125 0q-1.25 0 -2.25 0.046875l-0.046875 -0.46875q0.8125 -0.15625 1.09375 -0.28125q0.296875 -0.125 0.328125 -0.40625q0.125 -0.9375 0.125 -3.421875q0 -4.015625 -0.09375 -5.0l-0.03125 -0.328125q-0.03125 -0.28125 -0.296875 -0.40625q-0.25 -0.125 -1.015625 -0.28125l0.046875 -0.46875q1.0 0.0625 2.140625 0.0625zm0.859375 10.0q0.875 0.1875 1.84375 0.1875q0.984375 0 1.859375 -0.390625q0.875 -0.390625 1.34375 -0.921875q0.46875 -0.546875 0.734375 -1.28125q0.4375 -1.09375 0.4375 -2.234375q0 -4.6875 -5.21875 -4.6875q-0.578125 0 -0.765625 0.0625q-0.171875 0.0625 -0.234375 0.265625q-0.171875 1.046875 -0.171875 3.515625q0 3.859375 0.125 5.109375l0.046875 0.375zm14.085297 -4.171875q0 -0.734375 -0.421875 -1.09375q-0.40625 -0.359375 -0.921875 -0.359375q-0.75 0 -1.296875 0.59375q-0.546875 0.59375 -0.71875 1.453125l3.3125 -0.125q0.046875 -0.234375 0.046875 -0.46875zm-1.390625 5.265625q-1.703125 0 -2.5625 -0.96875q-0.859375 -0.96875 -0.859375 -2.578125q0 -1.609375 0.953125 -2.78125q0.953125 -1.171875 2.875 -1.171875q0.96875 0 1.6875 0.6875q0.734375 0.6875 0.734375 2.046875l-0.546875 0.65625q-0.09375 -0.015625 -1.515625 -0.015625q-1.40625 0 -2.828125 0.109375l0 0.140625q0 1.46875 0.609375 2.203125q0.609375 0.71875 1.65625 0.71875q1.0625 0 2.234375 -0.515625l0.1875 0.484375q-1.234375 0.984375 -2.625 0.984375zm6.453369 0q-1.671875 0 -1.671875 -1.59375q0.015625 -1.40625 0.015625 -2.578125q0 -1.1875 -0.03125 -2.46875l-1.015625 0.015625l-0.046875 -0.171875l0.359375 -0.625q0.21875 0.046875 0.671875 0.0625l-0.0625 -1.46875l1.0625 -0.9375l0.296875 0.140625q-0.03125 1.1875 -0.03125 2.25l2.359375 -0.015625l0.078125 0.1875l-0.578125 0.640625q-0.546875 -0.0625 -1.859375 -0.078125l0 2.140625q0 2.0 0.046875 2.875q0.046875 0.71875 0.84375 0.71875q0.640625 0 1.40625 -0.375l0.203125 0.53125q-1.140625 0.75 -2.046875 0.75zm6.763275 -3.5q-1.3125 0.03125 -2.0 0.5q-0.6875 0.453125 -0.6875 1.0q0 0.546875 0.28125 0.796875q0.28125 0.25 0.90625 0.25q0.625 0 1.5 -0.53125l0 -2.015625zm1.171875 3.5q-0.96875 0 -1.125 -1.03125q-1.40625 1.03125 -2.4375 1.03125q-0.6875 0 -1.171875 -0.421875q-0.46875 -0.421875 -0.46875 -1.3125q0 -0.90625 0.953125 -1.625q0.953125 -0.71875 3.078125 -0.859375l0 -1.484375q0 -0.453125 -0.328125 -0.6875q-0.328125 -0.25 -0.921875 -0.25q-0.59375 0 -0.953125 0.328125q-0.34375 0.328125 -0.34375 0.84375q0 0.1875 0.046875 0.4375l-0.34375 0.15625q-0.328125 -0.171875 -0.609375 -0.46875q-0.28125 -0.3125 -0.28125 -0.453125q0 -0.140625 0.21875 -0.390625q0.21875 -0.265625 0.578125 -0.5625q0.375 -0.3125 0.984375 -0.53125q0.625 -0.21875 1.390625 -0.21875q0.765625 0 1.25 0.375q0.484375 0.375 0.484375 1.359375q0 0.984375 0.09375 4.15625q0.015625 0.765625 0.578125 0.765625q0.234375 0 0.484375 -0.125l0.171875 0.40625q-0.609375 0.5625 -1.328125 0.5625zm4.2963867 -9.390625q-0.234375 0.234375 -0.59375 0.234375q-0.34375 0 -0.59375 -0.234375q-0.234375 -0.25 -0.234375 -0.609375q0 -0.359375 0.234375 -0.59375q0.25 -0.25 0.59375 -0.25q0.359375 0 0.59375 0.25q0.25 0.234375 0.25 0.59375q0 0.359375 -0.25 0.609375zm0.0625 2.046875l-0.03125 3.546875q0 2.0625 0.125 2.6875l0.046875 0.203125q0.015625 0.109375 0.40625 0.21875q0.390625 0.09375 0.71875 0.125l-0.046875 0.46875q-0.765625 -0.046875 -1.875 -0.046875q-1.09375 0 -1.859375 0.046875l0.046875 -0.46875q0.328125 -0.03125 0.703125 -0.125q0.390625 -0.109375 0.40625 -0.21875q0.125 -0.5625 0.125 -2.25q0 -2.71875 -0.125 -3.328125l-1.015625 -0.296875l-0.03125 -0.421875q1.015625 0 2.109375 -0.28125l0.296875 0.140625zm4.321869 -4.328125q-0.03125 2.0 -0.03125 5.859375q0 3.84375 0.171875 4.90625q0.015625 0.109375 0.421875 0.21875q0.40625 0.109375 0.703125 0.125l-0.046875 0.46875q-0.765625 -0.046875 -1.859375 -0.046875q-1.078125 0 -1.859375 0.046875l0.0625 -0.46875q0.328125 -0.03125 0.703125 -0.125q0.375 -0.109375 0.390625 -0.21875q0.109375 -1.046875 0.109375 -4.0q0 -4.8125 -0.09375 -5.640625l-0.03125 -0.265625l-1.015625 -0.296875l-0.03125 -0.421875q1.015625 0 2.109375 -0.296875l0.296875 0.15625zm6.5082703 4.453125l0.234375 0.125q0 1.03125 0.09375 1.578125l-0.421875 0.140625q-0.203125 -0.8125 -0.578125 -1.125q-0.375 -0.328125 -0.953125 -0.328125q-0.578125 0 -0.921875 0.3125q-0.328125 0.296875 -0.328125 0.71875q0 0.71875 0.828125 1.171875l1.640625 0.90625q1.046875 0.59375 1.046875 1.703125q0 0.8125 -0.65625 1.421875q-0.640625 0.59375 -1.84375 0.59375q-1.1875 0 -2.453125 -0.390625q0.1875 -1.125 0.1875 -1.84375l0.421875 -0.140625q0.140625 0.578125 0.203125 0.78125q0.078125 0.203125 0.265625 0.515625q0.1875 0.296875 0.46875 0.390625q0.296875 0.09375 0.84375 0.09375q0.5625 0 0.9375 -0.3125q0.375 -0.328125 0.375 -0.765625q0 -0.671875 -0.765625 -1.09375l-1.71875 -0.953125q-1.0625 -0.5625 -1.0625 -1.71875q0 -0.8125 0.625 -1.4375q0.625 -0.625 1.734375 -0.625q1.125 0 1.796875 0.28125z" fill-rule="nonzero"></path><path fill="#b6d7a8" d="m45.72441 215.29716l241.88976 0l0 41.76378l-241.88976 0z" fill-rule="nonzero"></path><path stroke="#000000" stroke-width="1.0" stroke-linejoin="round" stroke-linecap="butt" d="m45.72441 215.29716l241.88976 0l0 41.76378l-241.88976 0z" fill-rule="nonzero"></path><path fill="#000000" d="m97.73215 228.59467q1.3125 0.109375 4.765625 0.109375q3.453125 0 4.765625 -0.109375l0 0.25q0 1.265625 0.1875 2.34375l-0.4375 0.203125q-0.40625 -1.3125 -0.984375 -1.65625q-0.578125 -0.359375 -2.171875 -0.359375q-0.484375 0 -0.53125 0.421875q-0.125 0.953125 -0.125 3.421875q0 4.015625 0.09375 5.0l0.03125 0.328125q0.03125 0.296875 0.296875 0.421875q0.28125 0.109375 1.0625 0.265625l-0.046875 0.46875q-1.015625 -0.046875 -2.203125 -0.046875q-1.171875 0 -2.1875 0.046875l-0.046875 -0.46875q0.8125 -0.15625 1.09375 -0.28125q0.296875 -0.125 0.328125 -0.40625q0.140625 -0.9375 0.140625 -3.421875q0 -4.015625 -0.109375 -5.0l-0.03125 -0.328125q-0.046875 -0.421875 -0.484375 -0.421875q-1.609375 0 -2.1875 0.359375q-0.5625 0.34375 -0.984375 1.65625l-0.4375 -0.203125q0.203125 -1.078125 0.203125 -2.34375l0 -0.25zm15.006393 3.609375q0.125 0 0.421875 0.375q0.296875 0.375 0.390625 0.734375l-0.234375 0.3125q-0.578125 -0.21875 -1.203125 -0.21875q-0.625 0 -1.140625 0.515625q-0.515625 0.515625 -0.515625 1.671875q0.015625 2.8125 0.140625 3.28125q0.015625 0.125 0.453125 0.234375q0.453125 0.09375 0.9375 0.125l-0.0625 0.46875q-0.765625 -0.046875 -1.9375 -0.046875q-1.171875 0 -1.9375 0.046875l0.046875 -0.46875q0.3125 -0.03125 0.65625 -0.125q0.359375 -0.109375 0.375 -0.21875q0.125 -0.5625 0.125 -2.25q0 -2.71875 -0.125 -3.328125l-1.015625 -0.296875l-0.03125 -0.421875q1.015625 0 2.109375 -0.28125l0.296875 0.140625q-0.03125 0.25 -0.03125 1.3125q0.46875 -0.765625 1.171875 -1.15625q0.71875 -0.40625 1.109375 -0.40625zm5.578888 4.09375q-1.3125 0.03125 -2.0 0.5q-0.6875 0.453125 -0.6875 1.0q0 0.546875 0.28125 0.796875q0.28125 0.25 0.90625 0.25q0.625 0 1.5 -0.53125l0 -2.015625zm1.171875 3.5q-0.96875 0 -1.125 -1.03125q-1.40625 1.03125 -2.4375 1.03125q-0.6875 0 -1.171875 -0.421875q-0.46875 -0.421875 -0.46875 -1.3125q0 -0.90625 0.953125 -1.625q0.953125 -0.71875 3.078125 -0.859375l0 -1.484375q0 -0.453125 -0.328125 -0.6875q-0.328125 -0.25 -0.921875 -0.25q-0.59375 0 -0.953125 0.328125q-0.34375 0.328125 -0.34375 0.84375q0 0.1875 0.046875 0.4375l-0.34375 0.15625q-0.328125 -0.171875 -0.609375 -0.46875q-0.28125 -0.3125 -0.28125 -0.453125q0 -0.140625 0.21875 -0.390625q0.21875 -0.265625 0.578125 -0.5625q0.375 -0.3125 0.984375 -0.53125q0.625 -0.21875 1.390625 -0.21875q0.765625 0 1.25 0.375q0.484375 0.375 0.484375 1.359375q0 0.984375 0.09375 4.15625q0.015625 0.765625 0.578125 0.765625q0.234375 0 0.484375 -0.125l0.171875 0.40625q-0.609375 0.5625 -1.328125 0.5625zm4.2495117 -6.015625l-0.015625 2.21875q0 2.0625 0.125 2.6875l0.03125 0.203125q0.015625 0.109375 0.359375 0.21875q0.34375 0.09375 0.671875 0.125l-0.046875 0.46875q-0.765625 -0.046875 -1.765625 -0.046875q-0.984375 0 -1.75 0.046875l0.046875 -0.46875q0.296875 -0.03125 0.640625 -0.125q0.34375 -0.109375 0.359375 -0.21875q0.125 -0.5625 0.125 -2.25q0 -2.71875 -0.125 -3.328125l-1.015625 -0.296875l-0.03125 -0.421875q1.015625 0 2.109375 -0.28125l0.296875 0.140625l0 0.765625q1.78125 -0.921875 3.09375 -0.921875q0.796875 0 1.203125 0.328125q0.421875 0.3125 0.421875 1.1875l0 2.1875q0 2.0625 0.109375 2.6875l0.046875 0.203125q0.03125 0.109375 0.375 0.21875q0.34375 0.09375 0.65625 0.125l-0.046875 0.46875q-0.765625 -0.046875 -1.765625 -0.046875q-0.984375 0 -1.75 0.046875l0.046875 -0.46875q0.296875 -0.03125 0.640625 -0.125q0.34375 -0.109375 0.359375 -0.21875q0.125 -0.5625 0.125 -2.890625l0 -1.5625q0 -0.625 -0.375 -0.859375q-0.359375 -0.234375 -1.234375 -0.234375q-0.875 0 -1.921875 0.4375zm11.147522 -1.203125l0.234375 0.125q0 1.03125 0.09375 1.578125l-0.421875 0.140625q-0.203125 -0.8125 -0.578125 -1.125q-0.375 -0.328125 -0.953125 -0.328125q-0.578125 0 -0.921875 0.3125q-0.328125 0.296875 -0.328125 0.71875q0 0.71875 0.828125 1.171875l1.640625 0.90625q1.046875 0.59375 1.046875 1.703125q0 0.8125 -0.65625 1.421875q-0.640625 0.59375 -1.84375 0.59375q-1.1875 0 -2.453125 -0.390625q0.1875 -1.125 0.1875 -1.84375l0.421875 -0.140625q0.140625 0.578125 0.203125 0.78125q0.078125 0.203125 0.265625 0.515625q0.1875 0.296875 0.46875 0.390625q0.296875 0.09375 0.84375 0.09375q0.5625 0 0.9375 -0.3125q0.375 -0.328125 0.375 -0.765625q0 -0.671875 -0.765625 -1.09375l-1.71875 -0.953125q-1.0625 -0.5625 -1.0625 -1.71875q0 -0.8125 0.625 -1.4375q0.625 -0.625 1.734375 -0.625q1.125 0 1.796875 0.28125zm5.81514 3.71875q-1.3125 0.03125 -2.0 0.5q-0.6875 0.453125 -0.6875 1.0q0 0.546875 0.28125 0.796875q0.28125 0.25 0.90625 0.25q0.625 0 1.5 -0.53125l0 -2.015625zm1.171875 3.5q-0.96875 0 -1.125 -1.03125q-1.40625 1.03125 -2.4375 1.03125q-0.6875 0 -1.171875 -0.421875q-0.46875 -0.421875 -0.46875 -1.3125q0 -0.90625 0.953125 -1.625q0.953125 -0.71875 3.078125 -0.859375l0 -1.484375q0 -0.453125 -0.328125 -0.6875q-0.328125 -0.25 -0.921875 -0.25q-0.59375 0 -0.953125 0.328125q-0.34375 0.328125 -0.34375 0.84375q0 0.1875 0.046875 0.4375l-0.34375 0.15625q-0.328125 -0.171875 -0.609375 -0.46875q-0.28125 -0.3125 -0.28125 -0.453125q0 -0.140625 0.21875 -0.390625q0.21875 -0.265625 0.578125 -0.5625q0.375 -0.3125 0.984375 -0.53125q0.625 -0.21875 1.390625 -0.21875q0.765625 0 1.25 0.375q0.484375 0.375 0.484375 1.359375q0 0.984375 0.09375 4.15625q0.015625 0.765625 0.578125 0.765625q0.234375 0 0.484375 -0.125l0.171875 0.40625q-0.609375 0.5625 -1.328125 0.5625zm8.218262 -1.046875q-1.328125 1.046875 -2.90625 1.046875q-1.5625 0 -2.40625 -0.984375q-0.84375 -1.0 -0.84375 -2.59375q0 -1.59375 0.984375 -2.75q0.984375 -1.171875 2.734375 -1.171875q0.734375 0 1.296875 0.234375q0.5625 0.234375 0.796875 0.46875q0.25 0.234375 0.25 0.390625q0 0.640625 -0.390625 1.15625l-0.375 0q-0.1875 -0.515625 -0.65625 -0.953125q-0.453125 -0.4375 -1.171875 -0.4375q-0.984375 0 -1.53125 0.890625q-0.53125 0.890625 -0.53125 2.1875q0 1.28125 0.625 1.953125q0.625 0.671875 1.734375 0.671875q1.125 0 2.203125 -0.640625l0.1875 0.53125zm3.4786377 1.046875q-1.671875 0 -1.671875 -1.59375q0.015625 -1.40625 0.015625 -2.578125q0 -1.1875 -0.03125 -2.46875l-1.015625 0.015625l-0.046875 -0.171875l0.359375 -0.625q0.21875 0.046875 0.671875 0.0625l-0.0625 -1.46875l1.0625 -0.9375l0.296875 0.140625q-0.03125 1.1875 -0.03125 2.25l2.359375 -0.015625l0.078125 0.1875l-0.578125 0.640625q-0.546875 -0.0625 -1.859375 -0.078125l0 2.140625q0 2.0 0.046875 2.875q0.046875 0.71875 0.84375 0.71875q0.640625 0 1.40625 -0.375l0.203125 0.53125q-1.140625 0.75 -2.046875 0.75zm4.91951 -9.390625q-0.234375 0.234375 -0.59375 0.234375q-0.34375 0 -0.59375 -0.234375q-0.234375 -0.25 -0.234375 -0.609375q0 -0.359375 0.234375 -0.59375q0.25 -0.25 0.59375 -0.25q0.359375 0 0.59375 0.25q0.25 0.234375 0.25 0.59375q0 0.359375 -0.25 0.609375zm0.0625 2.046875l-0.03125 3.546875q0 2.0625 0.125 2.6875l0.046875 0.203125q0.015625 0.109375 0.40625 0.21875q0.390625 0.09375 0.71875 0.125l-0.046875 0.46875q-0.765625 -0.046875 -1.875 -0.046875q-1.09375 0 -1.859375 0.046875l0.046875 -0.46875q0.328125 -0.03125 0.703125 -0.125q0.390625 -0.109375 0.40625 -0.21875q0.125 -0.5625 0.125 -2.25q0 -2.71875 -0.125 -3.328125l-1.015625 -0.296875l-0.03125 -0.421875q1.015625 0 2.109375 -0.28125l0.296875 0.140625zm5.790634 0.625q-0.65625 0 -1.140625 0.328125q-0.46875 0.328125 -0.6875 0.828125q-0.4375 0.90625 -0.4375 1.734375q0 1.3125 0.53125 2.1875q0.53125 0.875 1.65625 0.875q0.609375 0 1.078125 -0.28125q0.46875 -0.28125 0.703125 -0.71875q0.46875 -0.84375 0.5 -1.671875q0 -3.28125 -2.203125 -3.28125zm0.078125 -0.78125q1.828125 0 2.65625 0.9375q0.84375 0.921875 0.84375 2.578125q0 1.65625 -0.953125 2.828125q-0.953125 1.15625 -2.78125 1.15625q-1.828125 0 -2.65625 -0.921875q-0.828125 -0.921875 -0.828125 -2.5625q0 -1.640625 0.953125 -2.828125q0.953125 -1.1875 2.765625 -1.1875zm6.885895 1.484375l-0.015625 2.21875q0 2.0625 0.125 2.6875l0.03125 0.203125q0.015625 0.109375 0.359375 0.21875q0.34375 0.09375 0.671875 0.125l-0.046875 0.46875q-0.765625 -0.046875 -1.765625 -0.046875q-0.984375 0 -1.75 0.046875l0.046875 -0.46875q0.296875 -0.03125 0.640625 -0.125q0.34375 -0.109375 0.359375 -0.21875q0.125 -0.5625 0.125 -2.25q0 -2.71875 -0.125 -3.328125l-1.015625 -0.296875l-0.03125 -0.421875q1.015625 0 2.109375 -0.28125l0.296875 0.140625l0 0.765625q1.78125 -0.921875 3.09375 -0.921875q0.796875 0 1.203125 0.328125q0.421875 0.3125 0.421875 1.1875l0 2.1875q0 2.0625 0.109375 2.6875l0.046875 0.203125q0.03125 0.109375 0.375 0.21875q0.34375 0.09375 0.65625 0.125l-0.046875 0.46875q-0.765625 -0.046875 -1.765625 -0.046875q-0.984375 0 -1.75 0.046875l0.046875 -0.46875q0.296875 -0.03125 0.640625 -0.125q0.34375 -0.109375 0.359375 -0.21875q0.125 -0.5625 0.125 -2.890625l0 -1.5625q0 -0.625 -0.375 -0.859375q-0.359375 -0.234375 -1.234375 -0.234375q-0.875 0 -1.921875 0.4375zm16.569412 -4.53125q-0.9375 0 -1.65625 0.375q-0.71875 0.375 -1.140625 0.921875q-0.40625 0.53125 -0.671875 1.21875q-0.4375 1.15625 -0.4375 2.25q0 1.078125 0.1875 1.953125q0.1875 0.875 0.609375 1.609375q0.421875 0.734375 1.171875 1.15625q0.75 0.40625 1.6875 0.40625q0.9375 0 1.625 -0.3125q0.6875 -0.328125 1.109375 -0.8125q0.421875 -0.484375 0.703125 -1.109375q0.515625 -1.109375 0.546875 -2.234375q0 -5.421875 -3.734375 -5.421875zm4.078125 8.75q-0.671875 0.875 -1.828125 1.390625q-1.15625 0.515625 -2.671875 0.515625q-2.625 0 -3.90625 -1.40625q-1.265625 -1.421875 -1.265625 -3.875q0 -2.453125 1.34375 -4.21875q0.671875 -0.875 1.828125 -1.390625q1.15625 -0.53125 2.671875 -0.53125q2.625 0 3.890625 1.40625q1.28125 1.40625 1.28125 3.859375q0 2.453125 -1.34375 4.25zm6.2166443 0.953125q1.28125 0 1.921875 -0.859375q0.640625 -0.859375 0.640625 -2.03125q0 -1.1875 -0.5625 -1.96875q-0.546875 -0.796875 -1.640625 -0.796875q-0.4375 0 -1.0 0.171875q-0.5625 0.15625 -0.828125 0.328125l0 4.890625q0.765625 0.265625 1.46875 0.265625zm-0.296875 4.90625q-0.765625 -0.046875 -1.859375 -0.046875q-1.09375 0 -1.859375 0.046875l0.046875 -0.453125q1.078125 -0.109375 1.109375 -0.3125q0.1875 -0.90625 0.1875 -3.890625q0 -4.796875 -0.09375 -5.609375l-0.03125 -0.28125l-1.03125 -0.296875l-0.03125 -0.421875q1.015625 0 2.109375 -0.28125l0.296875 0.140625l0 0.78125q1.25 -0.9375 2.546875 -0.9375q1.296875 0 2.09375 0.875q0.796875 0.859375 0.796875 2.703125q0 1.84375 -1.015625 2.890625q-1.0 1.03125 -2.453125 1.03125q-1.0625 0 -1.984375 -0.515625q0.015625 3.59375 0.09375 3.8125q0.03125 0.203125 1.125 0.3125l-0.046875 0.453125zm8.064148 -4.0625q-1.671875 0 -1.671875 -1.59375q0.015625 -1.40625 0.015625 -2.578125q0 -1.1875 -0.03125 -2.46875l-1.015625 0.015625l-0.046875 -0.171875l0.359375 -0.625q0.21875 0.046875 0.671875 0.0625l-0.0625 -1.46875l1.0625 -0.9375l0.296875 0.140625q-0.03125 1.1875 -0.03125 2.25l2.359375 -0.015625l0.078125 0.1875l-0.578125 0.640625q-0.546875 -0.0625 -1.859375 -0.078125l0 2.140625q0 2.0 0.046875 2.875q0.046875 0.71875 0.84375 0.71875q0.640625 0 1.40625 -0.375l0.203125 0.53125q-1.140625 0.75 -2.046875 0.75zm4.91951 -9.390625q-0.234375 0.234375 -0.59375 0.234375q-0.34375 0 -0.59375 -0.234375q-0.234375 -0.25 -0.234375 -0.609375q0 -0.359375 0.234375 -0.59375q0.25 -0.25 0.59375 -0.25q0.359375 0 0.59375 0.25q0.25 0.234375 0.25 0.59375q0 0.359375 -0.25 0.609375zm0.0625 2.046875l-0.03125 3.546875q0 2.0625 0.125 2.6875l0.046875 0.203125q0.015625 0.109375 0.40625 0.21875q0.390625 0.09375 0.71875 0.125l-0.046875 0.46875q-0.765625 -0.046875 -1.875 -0.046875q-1.09375 0 -1.859375 0.046875l0.046875 -0.46875q0.328125 -0.03125 0.703125 -0.125q0.390625 -0.109375 0.40625 -0.21875q0.125 -0.5625 0.125 -2.25q0 -2.71875 -0.125 -3.328125l-1.015625 -0.296875l-0.03125 -0.421875q1.015625 0 2.109375 -0.28125l0.296875 0.140625zm5.790634 0.625q-0.65625 0 -1.140625 0.328125q-0.46875 0.328125 -0.6875 0.828125q-0.4375 0.90625 -0.4375 1.734375q0 1.3125 0.53125 2.1875q0.53125 0.875 1.65625 0.875q0.609375 0 1.078125 -0.28125q0.46875 -0.28125 0.703125 -0.71875q0.46875 -0.84375 0.5 -1.671875q0 -3.28125 -2.203125 -3.28125zm0.078125 -0.78125q1.828125 0 2.65625 0.9375q0.84375 0.921875 0.84375 2.578125q0 1.65625 -0.953125 2.828125q-0.953125 1.15625 -2.78125 1.15625q-1.828125 0 -2.65625 -0.921875q-0.828125 -0.921875 -0.828125 -2.5625q0 -1.640625 0.953125 -2.828125q0.953125 -1.1875 2.765625 -1.1875zm6.885895 1.484375l-0.015625 2.21875q0 2.0625 0.125 2.6875l0.03125 0.203125q0.015625 0.109375 0.359375 0.21875q0.34375 0.09375 0.671875 0.125l-0.046875 0.46875q-0.765625 -0.046875 -1.765625 -0.046875q-0.984375 0 -1.75 0.046875l0.046875 -0.46875q0.296875 -0.03125 0.640625 -0.125q0.34375 -0.109375 0.359375 -0.21875q0.125 -0.5625 0.125 -2.25q0 -2.71875 -0.125 -3.328125l-1.015625 -0.296875l-0.03125 -0.421875q1.015625 0 2.109375 -0.28125l0.296875 0.140625l0 0.765625q1.78125 -0.921875 3.09375 -0.921875q0.796875 0 1.203125 0.328125q0.421875 0.3125 0.421875 1.1875l0 2.1875q0 2.0625 0.109375 2.6875l0.046875 0.203125q0.03125 0.109375 0.375 0.21875q0.34375 0.09375 0.65625 0.125l-0.046875 0.46875q-0.765625 -0.046875 -1.765625 -0.046875q-0.984375 0 -1.75 0.046875l0.046875 -0.46875q0.296875 -0.03125 0.640625 -0.125q0.34375 -0.109375 0.359375 -0.21875q0.125 -0.5625 0.125 -2.890625l0 -1.5625q0 -0.625 -0.375 -0.859375q-0.359375 -0.234375 -1.234375 -0.234375q-0.875 0 -1.921875 0.4375zm11.147522 -1.203125l0.234375 0.125q0 1.03125 0.09375 1.578125l-0.421875 0.140625q-0.203125 -0.8125 -0.578125 -1.125q-0.375 -0.328125 -0.953125 -0.328125q-0.578125 0 -0.921875 0.3125q-0.328125 0.296875 -0.328125 0.71875q0 0.71875 0.828125 1.171875l1.640625 0.90625q1.046875 0.59375 1.046875 1.703125q0 0.8125 -0.65625 1.421875q-0.640625 0.59375 -1.84375 0.59375q-1.1875 0 -2.453125 -0.390625q0.1875 -1.125 0.1875 -1.84375l0.421875 -0.140625q0.140625 0.578125 0.203125 0.78125q0.078125 0.203125 0.265625 0.515625q0.1875 0.296875 0.46875 0.390625q0.296875 0.09375 0.84375 0.09375q0.5625 0 0.9375 -0.3125q0.375 -0.328125 0.375 -0.765625q0 -0.671875 -0.765625 -1.09375l-1.71875 -0.953125q-1.0625 -0.5625 -1.0625 -1.71875q0 -0.8125 0.625 -1.4375q0.625 -0.625 1.734375 -0.625q1.125 0 1.796875 0.28125z" fill-rule="nonzero"></path></g></svg>

